<?xml version="1.0" standalone="no"?><!DOCTYPE svg PUBLIC "-//W3C//DTD SVG 1.1//EN" "http://www.w3.org/Graphics/SVG/1.1/DTD/svg11.dtd"><svg t="1583978605882" class="icon" viewBox="0 0 1285 1024" version="1.1" xmlns="http://www.w3.org/2000/svg" p-id="1553" xmlns:xlink="http://www.w3.org/1999/xlink" width="250.9765625" height="200"><defs><style type="text/css"></style></defs><path d="M1075.558774 232.963737a37.723562 37.723562 0 0 1 10.546452 26.362394v508.509431c0 20.562219-16.11492 37.237723-35.989489 37.260146H255.058219c-19.867095-0.029898-35.967066-16.697927-35.989489-37.260146V259.326131c0.029898-20.554745 16.129869-37.222774 35.996963-37.237722h795.064993c9.574774 0 18.611387 3.856818 25.428088 10.875328z m-271.584234 333.794102H1020.262774c3.146745-28.178686-9.701839-71.366073-29.748321-89.69343l-38.77746 1.270657-25.495358 52.978919-6.218744-39.487532 4.462248-7.10073-0.358774-7.302541a149.264818 149.264818 0 0 0-19.508321-0.022423l-0.336351 7.295066 4.469723 7.10073-6.181372 39.18108-32.83527-52.395912-35.055183-0.298978c-25.46546 21.481577-30.174365 63.719708-30.705051 88.475094z m160.065402-151.305343c3.931562-2.212438 6.854073-5.859971 8.834803-10.748262 2.152642-5.359182 3.13927-12.310423 2.997255-20.509898l-0.029898-2.840292-2.369401-1.599533a41.348672 41.348672 0 0 0-2.361927-1.472467c5.045255-26.833285 3.909139-44.23381-12.519708-59.758248-24.097635-17.67708-78.653664-18.36473-102.459796 1.128642-12.205781 13.902482-13.214832 26.063416-10.538978 58.958482a28.365547 28.365547 0 0 0-1.823766 1.143591l-2.369402 1.577109-0.037372 2.862716c-0.13454 8.371387 0.896934 15.434745 3.13927 20.808876 2.055474 4.940613 5.105051 8.565723 9.163679 10.688467 2.481518 8.804905 5.299387 17.13892 9.268321 24.291971 4.604263 8.371387 10.710891 15.098394 19.403679 19.089751 4.043679 1.868613 14.216409 2.885139 24.336817 3.012205 10.494131 0.179387 21.399358-0.560584 25.66727-2.100321 9.559825-3.550365 16.31673-10.142832 21.429256-18.708555 4.477197-7.422131 7.601518-16.271883 10.269898-25.824234z m-583.949081 113.088468v32.394277h216.759124v-32.394277h-216.759124z m0-100.90511v32.394277h216.759124v-32.401751h-216.759124z m0-100.905109v32.394277h216.759124v-32.394277h-216.759124z m-82.218978 201.810219v32.394277h62.777927v-32.394277h-62.777927z m0-100.90511v32.394277h62.777927v-32.401751h-62.777927z m0-100.905109v32.394277h62.777927v-32.394277h-62.777927z m157.568935 403.710131V698.039124h-166.680292v32.409226h166.680292z m572.602861 0V698.039124h-553.109489v32.409226h553.109489z" p-id="1554" fill="#bfbfbf"></path><path d="M967.194161 385.442569a6.824175 6.824175 0 0 0-2.795446-0.463416l-4.813547 0.336351-0.896934-5.134949a71.082044 71.082044 0 0 0-4.992935-16.638132c-15.36 3.266336-38.194453 6.114102-56.245255-4.903241-6.951241-4.23054-17.116496 4.447299-25.450511 3.550365a72.494715 72.494715 0 0 0-5.628263 17.991008l-0.934306 5.329284-4.933139-0.523211a6.943766 6.943766 0 0 0-2.877664 0.381197c-0.448467 0.171912-0.896934 0.358774-1.330453 0.575533 0.119591 5.904818 0.874511 10.778161 2.302131 14.440642 1.240759 3.214015 2.952409 5.306861 5.202219 6.069255l2.892614 0.979154 0.792292 3.13927c2.429197 9.694365 5.12 18.880467 8.939445 26.325022 3.535416 6.913869 8.072409 12.430015 14.298627 15.539387 2.638482 1.308029 11.024818 2.040526 19.792351 2.18254 9.320642 0.13454 18.603912-0.373723 21.675912-1.614482 6.906394-2.750599 11.88438-8.109781 15.748672-15.098394 4.133372-7.50435 7.085781-17.041752 9.679416-27.498511l0.747445-3.00473 2.743124-1.031475c2.167591-0.82219 3.856818-2.982307 5.082628-6.226218 1.345401-3.602686 2.077898-8.416234 2.219912-14.186511a7.878073 7.878073 0 0 0-1.210861-0.523212z" p-id="1555" fill="#bfbfbf"></path><path d="M74.744526 67.270073h231.708029v67.270073H74.744526z" p-id="1556" fill="#bfbfbf"></path><path d="M142.014599 67.270073v231.708029h-67.270073V67.270073zM994.10219 67.270073h231.708029v67.270073h-231.708029z" p-id="1557" fill="#bfbfbf"></path><path d="M1225.810219 67.270073v231.708029h-67.270073V67.270073zM74.744526 896.934307h231.708029v67.270073H74.744526z" p-id="1558" fill="#bfbfbf"></path><path d="M142.014599 732.49635v231.70803h-67.270073V732.49635zM994.10219 896.934307h231.708029v67.270073h-231.708029z" p-id="1559" fill="#bfbfbf"></path><path d="M1225.810219 732.49635v231.70803h-67.270073V732.49635z" p-id="1560" fill="#bfbfbf"></path></svg>